<?xml version="1.0" encoding="utf-8"?>
<!-- Generator: Adobe Illustrator 22.0.1, SVG Export Plug-In . SVG Version: 6.00 Build 0)  -->
<svg version="1.1" id="圖層_1" xmlns="http://www.w3.org/2000/svg" xmlns:xlink="http://www.w3.org/1999/xlink" x="0px" y="0px"
	 viewBox="0 0 181.6 159.5" style="enable-background:new 0 0 181.6 159.5;" xml:space="preserve">
<style type="text/css">
	.st0{clip-path:url(#SVGID_2_);fill:url(#SVGID_3_);}
	.st1{clip-path:url(#SVGID_5_);}
	.st2{fill:#FFFFFF;}
</style>
<g>
	<g>
		<g>
			<defs>
				<polygon id="SVGID_1_" points="185.7,155.6 176.6,164.8 1.3,164.8 1.3,0.5 176.6,0.5 185.7,9.6 				"/>
			</defs>
			<clipPath id="SVGID_2_">
				<use xlink:href="#SVGID_1_"  style="overflow:visible;"/>
			</clipPath>
			
				<radialGradient id="SVGID_3_" cx="90.4" cy="752.4518" r="86.0002" gradientTransform="matrix(1 0 0 1 0 -676)" gradientUnits="userSpaceOnUse">
				<stop  offset="0" style="stop-color:#0051A2"/>
				<stop  offset="5.056200e-02" style="stop-color:#0051A2"/>
				<stop  offset="0.1011" style="stop-color:#0051A2"/>
				<stop  offset="0.4946" style="stop-color:#002A5F"/>
				<stop  offset="0.8341" style="stop-color:#000C2C"/>
				<stop  offset="1" style="stop-color:#000018"/>
			</radialGradient>
			<path class="st0" d="M114.9-5.9H67.2L0.9,112.3l40.2-0.4l11.2-20.5c0,0,42.5,0,57.3,0c9.2,0,11.5,2,11.5,9.1c0,3.2,0,6.4,0,11.6
				c-3.6-8.3-20.2-8.4-20.2-8.4s-7.7,0-24.6,0S40,105,40,133.1c0.4,26.6,24.6,25.7,27.9,25.7s5.1,0,27.5,0
				c21.7,0,25.6-12.7,25.8-14.8l0,0v13.4h30.6V144l0,0v-32.1h28.1L114.9-5.9z M65.9,65.8L90.4,19L116,65.8H65.9z M112.4,139.5H80.1
				c-5.1,0-9.2-4.1-9.2-9.2c0-5.1,4.1-9.2,9.2-9.2h32.2c5.1,0,9.2,4.1,9.2,9.2C121.6,135.3,117.5,139.5,112.4,139.5z"/>
		</g>
	</g>
	<g>
		<g>
			<defs>
				<polygon id="SVGID_4_" points="185.7,155.6 176.6,164.8 1.3,164.8 1.3,0.5 176.6,0.5 185.7,9.6 				"/>
			</defs>
			<clipPath id="SVGID_5_">
				<use xlink:href="#SVGID_4_"  style="overflow:visible;"/>
			</clipPath>
			<g class="st1">
				<path class="st2" d="M117.8,77.6v-1.2h-0.4v-0.2h1v0.2H118v1.2H117.8z"/>
				<path class="st2" d="M118.6,77.6v-1.5h0.4l0.2,1l0.2-1h0.4v1.5h-0.2v-1.1l-0.2,1.1h-0.3l-0.3-1.1v1.1H118.6z"/>
				<g>
					<g>
						<path class="st2" d="M66.4,76.6H64l-3.3,6.7h1.7L63,82h4.3l0.6,1.3h1.7L66.4,76.6z M63.6,81l1.6-3.4l1.6,3.4H63.6z"/>
					</g>
					<g>
						<path class="st2" d="M66.4,76.6H64l-3.3,6.7h1.7L63,82h4.3l0.6,1.3h1.7L66.4,76.6z M63.6,81l1.6-3.4l1.6,3.4H63.6z"/>
					</g>
				</g>
				<path class="st2" d="M71.1,76.6v4.2c0,0-0.1,2.2,1.3,2.4c0,0,0.5,0.1,1.8,0.2h2.1c0,0,1.5,0.1,2-0.6c0,0,0.5-0.5,0.5-1.6v-1.3
					v-3.3h-1.6v3.6v0.7c0,0,0,1-0.8,1.1c0,0-0.7,0.1-2.6,0c0,0-0.9,0.1-1.1-0.8c0,0-0.1-0.6,0-1.1v-3.4L71.1,76.6z"/>
				<polygon class="st2" points="80.3,76.6 80.3,78 83.1,78 83.1,83.3 84.6,83.3 84.6,78 87.4,78 87.4,76.6 				"/>
				<g>
					<g>
						<path class="st2" d="M96.8,80.2c0,0,0-1.1,0-1.5c0,0,0-1.2-0.7-1.8c0,0-0.1-0.1-0.7-0.3c0,0-0.3-0.1-1.5-0.1c0,0-2.3,0-3,0
							c0,0-1,0-1.5,0.2c0,0-0.2,0.1-0.6,0.5c0,0-0.3,0.5-0.4,1.2l-0.1,2.2c0,0,0,1,0.2,1.6c0,0,0.3,0.8,1.2,1c0,0,0.6,0.1,1.3,0.1
							c0,0,1.8,0.1,3.2,0c0,0,1.2,0,1.7-0.5c0,0,0.4-0.4,0.6-1.1C96.7,81.8,96.8,81,96.8,80.2z M95.2,81c-0.1,0.9-0.9,1-0.9,1
							c-1.3,0.2-3,0.1-3,0.1c-0.7,0-0.8-0.3-0.9-0.3c-0.2-0.2-0.3-0.7-0.3-0.7c-0.1-0.7-0.1-1.7,0-1.7c0-1.4,1-1.4,1-1.4
							c1.3-0.2,3,0,3,0c0.4,0,0.6,0.1,0.6,0.1c0.4,0.2,0.5,0.7,0.5,0.7C95.3,79.6,95.2,81,95.2,81z"/>
					</g>
					<g>
						<path class="st2" d="M96.8,80.2c0,0,0-1.1,0-1.5c0,0,0-1.2-0.7-1.8c0,0-0.1-0.1-0.7-0.3c0,0-0.3-0.1-1.5-0.1c0,0-2.3,0-3,0
							c0,0-1,0-1.5,0.2c0,0-0.2,0.1-0.6,0.5c0,0-0.3,0.5-0.4,1.2l-0.1,2.2c0,0,0,1,0.2,1.6c0,0,0.3,0.8,1.2,1c0,0,0.6,0.1,1.3,0.1
							c0,0,1.8,0.1,3.2,0c0,0,1.2,0,1.7-0.5c0,0,0.4-0.4,0.6-1.1C96.7,81.8,96.8,81,96.8,80.2z M95.2,81c-0.1,0.9-0.9,1-0.9,1
							c-1.3,0.2-3,0.1-3,0.1c-0.7,0-0.8-0.3-0.9-0.3c-0.2-0.2-0.3-0.7-0.3-0.7c-0.1-0.7-0.1-1.7,0-1.7c0-1.4,1-1.4,1-1.4
							c1.3-0.2,3,0,3,0c0.4,0,0.6,0.1,0.6,0.1c0.4,0.2,0.5,0.7,0.5,0.7C95.3,79.6,95.2,81,95.2,81z"/>
					</g>
				</g>
				<g>
					<path class="st2" d="M104,79.6c0,0,0.1-1.6-1.4-1.9c0,0-1.6-0.3-3.4,0.1l0,0l0,0l0,0c-0.1,0-0.5,0.2-0.7,0.8
						c0,0-0.1,0.4-0.1,0.9h1.2c0,0,0-0.4,0.2-0.5l0,0c0.1,0,0.5-0.1,2.1-0.1c0,0,0.5,0,0.7,0.1c0,0,0.3,0.1,0.3,0.9
						c0,0-0.4-0.2-0.7-0.2c0,0-1.5-0.1-2.9,0.1l0,0c-0.1,0-0.8,0.2-1.1,1c0,0-0.2,0.7,0,1.6c0,0,0.3,0.8,1.1,0.9
						c0,0,0.9,0.1,2.5,0.1c0,0,0.9,0,1.1-0.2v0.1h1.2L104,79.6z M102.8,81.5L102.8,81.5c-0.1,0.5-1.2,0.5-1.2,0.5c-1.8,0-2,0-2-0.1
						c-0.4-0.1-0.3-0.5-0.3-0.6v-0.1c0-0.4,0.5-0.4,0.5-0.4c0.5-0.1,1.7-0.1,1.8-0.1c0.8,0,1,0.1,1,0.1
						C102.8,81.1,102.8,81.4,102.8,81.5z"/>
				</g>
				<path class="st2" d="M105.1,77.6v5.6h1.2V80c0,0,0-0.9,0.7-1.1c0,0,0.5-0.2,1.5-0.1c0,0,0.6,0,0.7,0.5c0,0,0,0.3,0.1,1.1h1.2
					v-0.9c0,0,0.1-0.9-0.6-1.6c0,0-0.3-0.3-1.2-0.4c0,0-1.7-0.1-2.3,0.3v-0.3L105.1,77.6L105.1,77.6z"/>
				<path class="st2" d="M111.1,77.6v1.3h1.1v2.4c0,0,0,0.8,0.2,1.2c0,0,0.3,0.7,1.4,0.8c0,0,0,0,0.1,0c0.2,0,1.1,0,1.6-0.1
					c0,0,0.9-0.2,1-1.2c0,0,0.1-1.2,0-1.6h-1.1v0.9c0,0,0,0.4-0.2,0.6h-0.1l0,0c-0.1,0-0.4,0.1-1.1,0.1h-0.2c0,0,0,0-0.1,0
					c-0.2,0-0.4-0.1-0.4-0.7v-2.4h3v-1.2h-3.1v-1.2H112v1.1H111.1z"/>
			</g>
		</g>
	</g>
</g>
</svg>
